# xmcd
#
# Track frame offsets:
#	150
#	17118
#	34186
#	50626
#	72448
#	91057
#	109906
#	126242
#	150885
#	165567
#
# Disc length: 2365 seconds
#
# Revision: 0
# Processed by: cddbd v1.5.2PL0 Copyright (c) Steve Scherf et al.
# Submitted via: EasyCDDAExtractor 16.1.0.1
#
DISCID=7b093b0a
DTITLE=Tracy Lynn Cox - Hear My Prayer
DYEAR=2012
DGENRE=Gospel/ Christian
TTITLE0=His Yoke Is Easy
TTITLE1=What I Ask Of You
TTITLE2=When I Close My Eyes
TTITLE3=Your Mercy Oh Lord
TTITLE4=Hear My Prayer
TTITLE5=On Heaven's Shore
TTITLE6=Every Tear
TTITLE7=It Was God
TTITLE8=Sunday Morn
TTITLE9=Grandmother's House
EXTD=
EXTT0=
EXTT1=
EXTT2=
EXTT3=
EXTT4=
EXTT5=
EXTT6=
EXTT7=
EXTT8=
EXTT9=
PLAYORDER=
